<svg width="900" height="440" viewBox="0 0 900 440" fill="none" xmlns="http://www.w3.org/2000/svg">
<path d="M0 307.111L12.5 329.225C25 351.753 50 395.358 75 417.886C100 440 125 440 150 412.28C175 384.976 200 328.913 225 334.831C250 340.333 275 406.778 300 395.669C325 384.976 350 295.691 375 273.889C400 252.087 425 295.691 450 323.722C475 351.753 500 362.135 525 356.944C550 351.753 575 328.913 600 334.831C625 340.333 650 373.556 675 368.053C700 362.135 725 318.531 750 318.22C775 318.531 800 362.135 825 390.167C850 418.198 875 428.58 887.5 434.498L900 440V141H887.5C875 141 850 141 825 141C800 141 775 141 750 141C725 141 700 141 675 141C650 141 625 141 600 141C575 141 550 141 525 141C500 141 475 141 450 141C425 141 400 141 375 141C350 141 325 141 300 141C275 141 250 141 225 141C200 141 175 141 150 141C125 141 100 141 75 141C50 141 25 141 12.5 141H0V307.111Z" fill="#0099FF"/>
<path d="M0 0H900V157H0V0Z" fill="#0099FF"/>
</svg>
